<?xml version="1.0" encoding="UTF-8"?>
<svg xmlns="http://www.w3.org/2000/svg" xmlns:xlink="http://www.w3.org/1999/xlink" width="810pt" height="809.999993pt" viewBox="0 0 810 809.999993" version="1.2">
<defs>
<clipPath id="clip1">
  <path d="M 73.546875 34.660156 L 736.546875 34.660156 L 736.546875 775.660156 L 73.546875 775.660156 Z M 73.546875 34.660156 "/>
</clipPath>
</defs>
<g id="surface1">
<g clip-path="url(#clip1)" clip-rule="nonzero">
<path style=" stroke:none;fill-rule:nonzero;fill:rgb(0.779724%,46.669006%,74.119568%);fill-opacity:1;" d="M 736.539062 34.660156 L 73.644531 34.660156 L 132.136719 697.953125 L 405.09375 775.988281 L 678.046875 697.953125 Z M 736.539062 34.660156 "/>
</g>
<path style=" stroke:none;fill-rule:nonzero;fill:rgb(1.179504%,60.778809%,89.7995%);fill-opacity:1;" d="M 405.09375 93.183594 L 405.09375 715.511719 L 623.457031 653.082031 L 672.199219 93.183594 Z M 405.09375 93.183594 "/>
<path style=" stroke:none;fill-rule:nonzero;fill:rgb(100%,100%,100%);fill-opacity:1;" d="M 582.511719 190.730469 L 405.09375 190.730469 L 405.09375 268.761719 L 500.625 268.761719 L 494.777344 346.796875 L 405.09375 346.796875 L 405.09375 424.832031 L 490.878906 424.832031 L 485.027344 512.621094 L 405.09375 539.933594 L 405.09375 621.871094 L 559.117188 571.148438 L 572.765625 346.796875 Z M 582.511719 190.730469 "/>
<path style=" stroke:none;fill-rule:nonzero;fill:rgb(93.328857%,93.328857%,93.328857%);fill-opacity:1;" d="M 405.09375 190.730469 L 405.09375 268.761719 L 231.570312 268.761719 L 225.722656 190.730469 Z M 315.40625 346.796875 L 319.304688 424.832031 L 405.09375 424.832031 L 405.09375 346.796875 Z M 323.203125 463.847656 L 245.21875 463.847656 L 251.066406 571.148438 L 405.09375 621.871094 L 405.09375 539.933594 L 325.15625 512.621094 Z M 323.203125 463.847656 "/>
</g>
</svg>
