<?xml version="1.0" encoding="UTF-8"?>
<svg xmlns="http://www.w3.org/2000/svg" xmlns:xlink="http://www.w3.org/1999/xlink" width="810pt" height="809.999993pt" viewBox="0 0 810 809.999993" version="1.2">
<g id="surface1">
<path style=" stroke:none;fill-rule:nonzero;fill:rgb(87.059021%,29.798889%,21.179199%);fill-opacity:1;" d="M 752.300781 372.953125 L 437.25 57.933594 C 419.125 39.78125 389.699219 39.78125 371.546875 57.929688 L 306.109375 123.351562 L 389.105469 206.34375 C 408.386719 199.824219 430.511719 204.199219 445.875 219.570312 C 461.320312 235.042969 465.664062 257.347656 458.980469 276.695312 L 538.976562 356.691406 C 558.316406 350.011719 580.640625 354.324219 596.113281 369.800781 C 617.707031 391.390625 617.707031 426.398438 596.113281 447.992188 C 574.496094 469.609375 539.515625 469.609375 517.894531 447.992188 C 501.628906 431.726562 497.628906 407.878906 505.859375 387.867188 L 431.273438 313.269531 L 431.246094 509.550781 C 436.515625 512.171875 441.476562 515.640625 445.875 520.007812 C 467.464844 541.601562 467.464844 576.609375 445.875 598.230469 C 424.285156 619.820312 389.246094 619.820312 367.683594 598.230469 C 346.09375 576.609375 346.09375 541.601562 367.683594 520.007812 C 373.011719 514.683594 379.183594 510.652344 385.78125 507.945312 L 385.78125 309.832031 C 379.183594 307.140625 373.039062 303.132812 367.683594 297.765625 C 351.304688 281.421875 347.386719 257.410156 355.761719 237.316406 L 273.964844 155.496094 L 57.933594 371.519531 C 39.78125 389.671875 39.78125 419.097656 57.9375 437.25 L 372.984375 752.300781 C 391.140625 770.425781 420.566406 770.425781 438.71875 752.300781 L 752.304688 438.71875 C 770.457031 420.5625 770.457031 391.109375 752.304688 372.957031 "/>
</g>
</svg>
