<?xml version="1.0" encoding="UTF-8"?>
<svg xmlns="http://www.w3.org/2000/svg" xmlns:xlink="http://www.w3.org/1999/xlink" width="810pt" height="809.999993pt" viewBox="0 0 810 809.999993" version="1.2">
<defs>
<clipPath id="clip1">
  <path d="M 78.085938 34 L 732.085938 34 L 732.085938 777 L 78.085938 777 Z M 78.085938 34 "/>
</clipPath>
</defs>
<g id="surface1">
<g clip-path="url(#clip1)" clip-rule="nonzero">
<path style=" stroke:none;fill-rule:nonzero;fill:rgb(89.408875%,30.198669%,14.898682%);fill-opacity:1;" d="M 137.472656 702.152344 L 77.902344 34.058594 L 732.449219 34.058594 L 672.828125 702.058594 L 404.757812 776.335938 Z M 137.472656 702.152344 "/>
</g>
<path style=" stroke:none;fill-rule:nonzero;fill:rgb(94.509888%,39.608765%,16.079712%);fill-opacity:1;" d="M 621.769531 659.515625 L 672.738281 88.683594 L 405.175781 88.683594 L 405.175781 719.570312 Z M 621.769531 659.515625 "/>
<path style=" stroke:none;fill-rule:nonzero;fill:rgb(92.158508%,92.158508%,92.158508%);fill-opacity:1;" d="M 404.894531 170.617188 L 199.6875 170.617188 L 221.796875 418.40625 L 405.175781 418.40625 L 405.175781 336.476562 L 296.746094 336.476562 L 289.253906 252.570312 L 405.175781 252.570312 L 405.175781 170.617188 Z M 405.175781 549.003906 L 404.824219 549.097656 L 313.566406 524.460938 L 307.765625 459.117188 L 225.460938 459.117188 L 236.945312 587.765625 L 404.800781 634.160156 L 405.171875 634.042969 Z M 405.175781 549.003906 "/>
<path style=" stroke:none;fill-rule:nonzero;fill:rgb(100%,100%,100%);fill-opacity:1;" d="M 404.894531 418.40625 L 505.804688 418.40625 L 496.527344 524.648438 L 405.128906 549.304688 L 405.128906 634.554688 L 573.125 588 L 595.628906 336.429688 L 405.171875 336.429688 Z M 608.199219 192.609375 L 610.148438 170.617188 L 404.847656 170.617188 L 404.847656 252.546875 L 602.773438 252.546875 L 604.394531 234.128906 Z M 608.199219 192.609375 "/>
</g>
</svg>
