<?xml version="1.0" encoding="UTF-8"?>
<svg xmlns="http://www.w3.org/2000/svg" xmlns:xlink="http://www.w3.org/1999/xlink" width="810pt" height="809.999993pt" viewBox="0 0 810 809.999993" version="1.2">
<defs>
<clipPath id="clip1">
  <path d="M 60.125 38.546875 L 749.171875 38.546875 L 749.171875 770.75 L 60.125 770.75 Z M 60.125 38.546875 "/>
</clipPath>
</defs>
<g id="surface1">
<g clip-path="url(#clip1)" clip-rule="nonzero">
<path style=" stroke:none;fill-rule:nonzero;fill:rgb(100%,83.918762%,0%);fill-opacity:1;" d="M -1.226562 20.351562 L 749.171875 20.351562 L 749.171875 770.75 L -1.226562 770.75 Z M -1.226562 20.351562 "/>
</g>
<path style=" stroke:none;fill-rule:nonzero;fill:rgb(0%,0%,0.389099%);fill-opacity:1;" d="M 489.40625 582.046875 C 503.832031 605.476562 519.507812 627.925781 552.710938 627.925781 C 580.601562 627.925781 595.234375 614.0625 595.234375 594.886719 C 595.234375 571.9375 580.101562 563.785156 549.417969 550.425781 L 532.597656 543.253906 C 484.050781 522.660156 451.761719 496.855469 451.761719 442.347656 C 451.761719 392.113281 490.21875 353.882812 550.316406 353.882812 C 593.109375 353.882812 623.855469 368.703125 646.03125 407.515625 L 593.628906 441.011719 C 582.101562 420.417969 569.636719 412.3125 550.316406 412.3125 C 530.597656 412.3125 518.109375 424.753906 518.109375 441.011719 C 518.109375 461.109375 530.617188 469.238281 559.484375 481.679688 L 576.308594 488.851562 C 633.527344 513.21875 665.792969 538.105469 665.792969 594.054688 C 665.792969 654.335938 618.183594 687.375 554.273438 687.375 C 491.761719 687.375 456.265625 656.003906 436.503906 617.167969 Z M 247.902344 583.753906 C 258.453125 602.640625 274.480469 617.167969 297.535156 617.167969 C 319.589844 617.167969 332.28125 608.457031 332.28125 574.585938 L 332.28125 353.863281 L 401.757812 353.863281 L 401.757812 585.257812 C 401.757812 655.441406 361.046875 687.375 301.597656 687.375 C 247.882812 687.375 209.113281 650.980469 193.3125 617.167969 Z M 247.902344 583.753906 "/>
</g>
</svg>
